<mxfile host="app.diagrams.net" agent="Mozilla/5.0 (Windows NT 10.0; Win64; x64; rv:138.0) Gecko/20100101 Firefox/138.0" version="26.2.14">
  <diagram name="Page-1" id="uUqYfzOqdNcVa6wASL14">
    <mxGraphModel grid="1" page="1" gridSize="10" guides="1" tooltips="1" connect="1" arrows="1" fold="1" pageScale="1" pageWidth="850" pageHeight="1100" math="0" shadow="0">
      <root>
        <mxCell id="0" />
        <mxCell id="1" parent="0" />
        <mxCell id="iqPXuH_9bO_A2cl8t-AS-46" style="edgeStyle=orthogonalEdgeStyle;rounded=0;orthogonalLoop=1;jettySize=auto;html=1;exitX=0.5;exitY=1;exitDx=0;exitDy=0;entryX=0.5;entryY=0;entryDx=0;entryDy=0;" edge="1" parent="1" source="iqPXuH_9bO_A2cl8t-AS-1" target="iqPXuH_9bO_A2cl8t-AS-8">
          <mxGeometry relative="1" as="geometry" />
        </mxCell>
        <mxCell id="iqPXuH_9bO_A2cl8t-AS-1" value="" style="ellipse;html=1;shape=startState;fillColor=#000000;strokeColor=#ff0000;" vertex="1" parent="1">
          <mxGeometry x="425" y="50" width="30" height="30" as="geometry" />
        </mxCell>
        <mxCell id="iqPXuH_9bO_A2cl8t-AS-14" style="edgeStyle=orthogonalEdgeStyle;rounded=0;orthogonalLoop=1;jettySize=auto;html=1;exitX=0;exitY=0.5;exitDx=0;exitDy=0;entryX=0.5;entryY=0;entryDx=0;entryDy=0;curved=1;" edge="1" parent="1" source="iqPXuH_9bO_A2cl8t-AS-8" target="iqPXuH_9bO_A2cl8t-AS-11">
          <mxGeometry relative="1" as="geometry">
            <Array as="points">
              <mxPoint x="300" y="140" />
            </Array>
          </mxGeometry>
        </mxCell>
        <mxCell id="iqPXuH_9bO_A2cl8t-AS-19" style="edgeStyle=orthogonalEdgeStyle;rounded=0;orthogonalLoop=1;jettySize=auto;html=1;exitX=0.25;exitY=1;exitDx=0;exitDy=0;entryX=0.25;entryY=0;entryDx=0;entryDy=0;" edge="1" parent="1" source="iqPXuH_9bO_A2cl8t-AS-8" target="iqPXuH_9bO_A2cl8t-AS-10">
          <mxGeometry relative="1" as="geometry" />
        </mxCell>
        <mxCell id="iqPXuH_9bO_A2cl8t-AS-22" style="edgeStyle=orthogonalEdgeStyle;rounded=0;orthogonalLoop=1;jettySize=auto;html=1;exitX=0.75;exitY=1;exitDx=0;exitDy=0;entryX=0.5;entryY=0;entryDx=0;entryDy=0;curved=1;" edge="1" parent="1" source="iqPXuH_9bO_A2cl8t-AS-8" target="iqPXuH_9bO_A2cl8t-AS-12">
          <mxGeometry relative="1" as="geometry" />
        </mxCell>
        <mxCell id="iqPXuH_9bO_A2cl8t-AS-23" value="Exit" style="edgeLabel;html=1;align=center;verticalAlign=middle;resizable=0;points=[];" connectable="0" vertex="1" parent="iqPXuH_9bO_A2cl8t-AS-22">
          <mxGeometry x="-0.1526" y="1" relative="1" as="geometry">
            <mxPoint x="-22" y="-21" as="offset" />
          </mxGeometry>
        </mxCell>
        <mxCell id="iqPXuH_9bO_A2cl8t-AS-8" value="Welcome Screen" style="rounded=1;whiteSpace=wrap;html=1;arcSize=40;fillColor=#e1d5e7;strokeColor=#9673a6;" vertex="1" parent="1">
          <mxGeometry x="380" y="120" width="120" height="40" as="geometry" />
        </mxCell>
        <mxCell id="iqPXuH_9bO_A2cl8t-AS-20" style="edgeStyle=orthogonalEdgeStyle;rounded=0;orthogonalLoop=1;jettySize=auto;html=1;entryX=0.5;entryY=1;entryDx=0;entryDy=0;exitX=0.5;exitY=0;exitDx=0;exitDy=0;" edge="1" parent="1" source="iqPXuH_9bO_A2cl8t-AS-10" target="iqPXuH_9bO_A2cl8t-AS-8">
          <mxGeometry relative="1" as="geometry">
            <mxPoint x="460" y="230" as="sourcePoint" />
          </mxGeometry>
        </mxCell>
        <mxCell id="iqPXuH_9bO_A2cl8t-AS-21" value="Back" style="edgeLabel;html=1;align=center;verticalAlign=middle;resizable=0;points=[];" connectable="0" vertex="1" parent="iqPXuH_9bO_A2cl8t-AS-20">
          <mxGeometry x="0.0757" y="1" relative="1" as="geometry">
            <mxPoint as="offset" />
          </mxGeometry>
        </mxCell>
        <mxCell id="iqPXuH_9bO_A2cl8t-AS-26" style="edgeStyle=orthogonalEdgeStyle;rounded=0;orthogonalLoop=1;jettySize=auto;html=1;exitX=0.5;exitY=1;exitDx=0;exitDy=0;entryX=0.5;entryY=0;entryDx=0;entryDy=0;" edge="1" parent="1" source="iqPXuH_9bO_A2cl8t-AS-10" target="iqPXuH_9bO_A2cl8t-AS-25">
          <mxGeometry relative="1" as="geometry" />
        </mxCell>
        <mxCell id="iqPXuH_9bO_A2cl8t-AS-29" value="Success" style="edgeLabel;html=1;align=center;verticalAlign=middle;resizable=0;points=[];" connectable="0" vertex="1" parent="iqPXuH_9bO_A2cl8t-AS-26">
          <mxGeometry x="-0.2802" relative="1" as="geometry">
            <mxPoint as="offset" />
          </mxGeometry>
        </mxCell>
        <mxCell id="iqPXuH_9bO_A2cl8t-AS-10" value="Register" style="rounded=1;whiteSpace=wrap;html=1;arcSize=40;fillColor=#e1d5e7;strokeColor=#9673a6;" vertex="1" parent="1">
          <mxGeometry x="380" y="240" width="120" height="40" as="geometry" />
        </mxCell>
        <mxCell id="iqPXuH_9bO_A2cl8t-AS-15" style="edgeStyle=orthogonalEdgeStyle;rounded=0;orthogonalLoop=1;jettySize=auto;html=1;exitX=0.75;exitY=0;exitDx=0;exitDy=0;entryX=0;entryY=0.75;entryDx=0;entryDy=0;curved=1;" edge="1" parent="1" source="iqPXuH_9bO_A2cl8t-AS-11" target="iqPXuH_9bO_A2cl8t-AS-8">
          <mxGeometry relative="1" as="geometry" />
        </mxCell>
        <mxCell id="iqPXuH_9bO_A2cl8t-AS-17" value="Back/Failed" style="edgeLabel;html=1;align=center;verticalAlign=middle;resizable=0;points=[];" connectable="0" vertex="1" parent="iqPXuH_9bO_A2cl8t-AS-15">
          <mxGeometry x="-0.0996" y="-7" relative="1" as="geometry">
            <mxPoint x="3" y="13" as="offset" />
          </mxGeometry>
        </mxCell>
        <mxCell id="iqPXuH_9bO_A2cl8t-AS-27" style="edgeStyle=orthogonalEdgeStyle;rounded=0;orthogonalLoop=1;jettySize=auto;html=1;exitX=0.5;exitY=1;exitDx=0;exitDy=0;entryX=0;entryY=0.5;entryDx=0;entryDy=0;curved=1;" edge="1" parent="1" source="iqPXuH_9bO_A2cl8t-AS-11" target="iqPXuH_9bO_A2cl8t-AS-25">
          <mxGeometry relative="1" as="geometry" />
        </mxCell>
        <mxCell id="iqPXuH_9bO_A2cl8t-AS-28" value="Success" style="edgeLabel;html=1;align=center;verticalAlign=middle;resizable=0;points=[];" connectable="0" vertex="1" parent="iqPXuH_9bO_A2cl8t-AS-27">
          <mxGeometry x="0.1289" y="15" relative="1" as="geometry">
            <mxPoint x="-9" y="-15" as="offset" />
          </mxGeometry>
        </mxCell>
        <mxCell id="iqPXuH_9bO_A2cl8t-AS-11" value="Login" style="rounded=1;whiteSpace=wrap;html=1;arcSize=40;fillColor=#e1d5e7;strokeColor=#9673a6;" vertex="1" parent="1">
          <mxGeometry x="240" y="240" width="120" height="40" as="geometry" />
        </mxCell>
        <mxCell id="iqPXuH_9bO_A2cl8t-AS-12" value="" style="ellipse;html=1;shape=endState;fillColor=#000000;strokeColor=#ff0000;" vertex="1" parent="1">
          <mxGeometry x="525" y="245" width="30" height="30" as="geometry" />
        </mxCell>
        <mxCell id="iqPXuH_9bO_A2cl8t-AS-30" style="edgeStyle=orthogonalEdgeStyle;rounded=0;orthogonalLoop=1;jettySize=auto;html=1;exitX=1;exitY=0.5;exitDx=0;exitDy=0;entryX=1;entryY=0.5;entryDx=0;entryDy=0;curved=1;" edge="1" parent="1" source="iqPXuH_9bO_A2cl8t-AS-25" target="iqPXuH_9bO_A2cl8t-AS-8">
          <mxGeometry relative="1" as="geometry">
            <Array as="points">
              <mxPoint x="600" y="355" />
              <mxPoint x="600" y="140" />
            </Array>
          </mxGeometry>
        </mxCell>
        <mxCell id="iqPXuH_9bO_A2cl8t-AS-31" value="LOGOUT" style="edgeLabel;html=1;align=center;verticalAlign=middle;resizable=0;points=[];fontStyle=1;fontSize=14;" connectable="0" vertex="1" parent="iqPXuH_9bO_A2cl8t-AS-30">
          <mxGeometry x="-0.0342" y="-1" relative="1" as="geometry">
            <mxPoint y="13" as="offset" />
          </mxGeometry>
        </mxCell>
        <mxCell id="iqPXuH_9bO_A2cl8t-AS-37" style="edgeStyle=orthogonalEdgeStyle;rounded=0;orthogonalLoop=1;jettySize=auto;html=1;exitX=0;exitY=1;exitDx=0;exitDy=0;entryX=0.25;entryY=0;entryDx=0;entryDy=0;curved=1;" edge="1" parent="1" source="iqPXuH_9bO_A2cl8t-AS-25" target="iqPXuH_9bO_A2cl8t-AS-32">
          <mxGeometry relative="1" as="geometry">
            <Array as="points">
              <mxPoint x="270" y="375" />
            </Array>
          </mxGeometry>
        </mxCell>
        <mxCell id="iqPXuH_9bO_A2cl8t-AS-38" style="edgeStyle=orthogonalEdgeStyle;rounded=0;orthogonalLoop=1;jettySize=auto;html=1;exitX=1;exitY=1;exitDx=0;exitDy=0;entryX=0.75;entryY=0;entryDx=0;entryDy=0;curved=1;" edge="1" parent="1" source="iqPXuH_9bO_A2cl8t-AS-25" target="iqPXuH_9bO_A2cl8t-AS-34">
          <mxGeometry relative="1" as="geometry">
            <Array as="points">
              <mxPoint x="610" y="375" />
            </Array>
          </mxGeometry>
        </mxCell>
        <mxCell id="iqPXuH_9bO_A2cl8t-AS-43" style="edgeStyle=orthogonalEdgeStyle;rounded=0;orthogonalLoop=1;jettySize=auto;html=1;exitX=0.38;exitY=1;exitDx=0;exitDy=1;exitPerimeter=0;entryX=0.25;entryY=0;entryDx=0;entryDy=0;curved=1;" edge="1" parent="1" source="iqPXuH_9bO_A2cl8t-AS-25" target="iqPXuH_9bO_A2cl8t-AS-33">
          <mxGeometry relative="1" as="geometry" />
        </mxCell>
        <mxCell id="iqPXuH_9bO_A2cl8t-AS-25" value="Dashboard" style="rounded=1;whiteSpace=wrap;html=1;arcSize=40;fillColor=#e1d5e7;strokeColor=#9673a6;points=[[0,0,0,0,0],[0,0.25,0,0,0],[0,0.5,0,0,0],[0,0.75,0,0,0],[0,1,0,0,0],[0.25,0,0,0,0],[0.25,1,0,0,0],[0.38,1,0,0,1],[0.5,0,0,0,0],[0.5,1,0,0,0],[0.62,1,0,0,0],[0.75,0,0,0,0],[0.75,1,0,0,0],[1,0,0,0,0],[1,0.25,0,0,0],[1,0.5,0,0,0],[1,0.75,0,0,0],[1,1,0,0,0]];" vertex="1" parent="1">
          <mxGeometry x="380" y="335" width="120" height="40" as="geometry" />
        </mxCell>
        <mxCell id="iqPXuH_9bO_A2cl8t-AS-40" style="edgeStyle=orthogonalEdgeStyle;rounded=0;orthogonalLoop=1;jettySize=auto;html=1;exitX=0.75;exitY=0;exitDx=0;exitDy=0;entryX=0.25;entryY=1;entryDx=0;entryDy=0;curved=1;" edge="1" parent="1" source="iqPXuH_9bO_A2cl8t-AS-32" target="iqPXuH_9bO_A2cl8t-AS-25">
          <mxGeometry relative="1" as="geometry">
            <Array as="points">
              <mxPoint x="330" y="395" />
              <mxPoint x="410" y="395" />
            </Array>
          </mxGeometry>
        </mxCell>
        <mxCell id="iqPXuH_9bO_A2cl8t-AS-41" value="Back" style="edgeLabel;html=1;align=center;verticalAlign=middle;resizable=0;points=[];" connectable="0" vertex="1" parent="iqPXuH_9bO_A2cl8t-AS-40">
          <mxGeometry x="-0.6948" y="-4" relative="1" as="geometry">
            <mxPoint as="offset" />
          </mxGeometry>
        </mxCell>
        <mxCell id="iqPXuH_9bO_A2cl8t-AS-49" style="edgeStyle=orthogonalEdgeStyle;rounded=0;orthogonalLoop=1;jettySize=auto;html=1;exitX=0.25;exitY=1;exitDx=0;exitDy=0;entryX=0.25;entryY=0;entryDx=0;entryDy=0;" edge="1" parent="1" source="iqPXuH_9bO_A2cl8t-AS-32" target="iqPXuH_9bO_A2cl8t-AS-48">
          <mxGeometry relative="1" as="geometry" />
        </mxCell>
        <mxCell id="iqPXuH_9bO_A2cl8t-AS-32" value="&lt;div&gt;Budget&lt;/div&gt;&lt;div&gt;Management&lt;/div&gt;" style="rounded=1;whiteSpace=wrap;html=1;arcSize=40;fillColor=#e1d5e7;strokeColor=#9673a6;" vertex="1" parent="1">
          <mxGeometry x="240" y="435" width="120" height="40" as="geometry" />
        </mxCell>
        <mxCell id="iqPXuH_9bO_A2cl8t-AS-33" value="&lt;div&gt;Expense&lt;/div&gt;&lt;div&gt;Actions&lt;/div&gt;" style="rounded=1;whiteSpace=wrap;html=1;arcSize=40;fillColor=#e1d5e7;strokeColor=#9673a6;" vertex="1" parent="1">
          <mxGeometry x="380" y="435" width="120" height="40" as="geometry" />
        </mxCell>
        <mxCell id="iqPXuH_9bO_A2cl8t-AS-39" style="edgeStyle=orthogonalEdgeStyle;rounded=0;orthogonalLoop=1;jettySize=auto;html=1;exitX=0.25;exitY=0;exitDx=0;exitDy=0;entryX=0.75;entryY=1;entryDx=0;entryDy=0;curved=1;" edge="1" parent="1" source="iqPXuH_9bO_A2cl8t-AS-34" target="iqPXuH_9bO_A2cl8t-AS-25">
          <mxGeometry relative="1" as="geometry">
            <Array as="points">
              <mxPoint x="550" y="395" />
              <mxPoint x="470" y="395" />
            </Array>
          </mxGeometry>
        </mxCell>
        <mxCell id="iqPXuH_9bO_A2cl8t-AS-42" value="Back" style="edgeLabel;html=1;align=center;verticalAlign=middle;resizable=0;points=[];" connectable="0" vertex="1" parent="iqPXuH_9bO_A2cl8t-AS-39">
          <mxGeometry x="-0.7078" y="3" relative="1" as="geometry">
            <mxPoint as="offset" />
          </mxGeometry>
        </mxCell>
        <mxCell id="iqPXuH_9bO_A2cl8t-AS-34" value="&lt;div&gt;System&lt;/div&gt;&lt;div&gt;Actions&lt;/div&gt;" style="rounded=1;whiteSpace=wrap;html=1;arcSize=40;fillColor=#e1d5e7;strokeColor=#9673a6;" vertex="1" parent="1">
          <mxGeometry x="520" y="435" width="120" height="40" as="geometry" />
        </mxCell>
        <mxCell id="iqPXuH_9bO_A2cl8t-AS-44" style="edgeStyle=orthogonalEdgeStyle;rounded=0;orthogonalLoop=1;jettySize=auto;html=1;exitX=0.75;exitY=0;exitDx=0;exitDy=0;entryX=0.62;entryY=1;entryDx=0;entryDy=0;entryPerimeter=0;curved=1;" edge="1" parent="1" source="iqPXuH_9bO_A2cl8t-AS-33" target="iqPXuH_9bO_A2cl8t-AS-25">
          <mxGeometry relative="1" as="geometry" />
        </mxCell>
        <mxCell id="iqPXuH_9bO_A2cl8t-AS-45" value="Back" style="edgeLabel;html=1;align=center;verticalAlign=middle;resizable=0;points=[];" connectable="0" vertex="1" parent="iqPXuH_9bO_A2cl8t-AS-44">
          <mxGeometry x="-0.3506" y="2" relative="1" as="geometry">
            <mxPoint y="11" as="offset" />
          </mxGeometry>
        </mxCell>
        <mxCell id="iqPXuH_9bO_A2cl8t-AS-51" style="edgeStyle=orthogonalEdgeStyle;rounded=0;orthogonalLoop=1;jettySize=auto;html=1;exitX=0.75;exitY=0;exitDx=0;exitDy=0;entryX=0.75;entryY=1;entryDx=0;entryDy=0;" edge="1" parent="1" source="iqPXuH_9bO_A2cl8t-AS-47" target="iqPXuH_9bO_A2cl8t-AS-48">
          <mxGeometry relative="1" as="geometry" />
        </mxCell>
        <mxCell id="iqPXuH_9bO_A2cl8t-AS-54" value="Back" style="edgeLabel;html=1;align=center;verticalAlign=middle;resizable=0;points=[];" connectable="0" vertex="1" parent="iqPXuH_9bO_A2cl8t-AS-51">
          <mxGeometry x="-0.1419" y="1" relative="1" as="geometry">
            <mxPoint as="offset" />
          </mxGeometry>
        </mxCell>
        <mxCell id="iqPXuH_9bO_A2cl8t-AS-47" value="&lt;div&gt;Expense&lt;/div&gt;&lt;div&gt;Management&lt;/div&gt;" style="rounded=1;whiteSpace=wrap;html=1;arcSize=40;fillColor=#e1d5e7;strokeColor=#9673a6;" vertex="1" parent="1">
          <mxGeometry x="240" y="625" width="120" height="40" as="geometry" />
        </mxCell>
        <mxCell id="iqPXuH_9bO_A2cl8t-AS-50" style="edgeStyle=orthogonalEdgeStyle;rounded=0;orthogonalLoop=1;jettySize=auto;html=1;exitX=0.25;exitY=1;exitDx=0;exitDy=0;entryX=0.25;entryY=0;entryDx=0;entryDy=0;" edge="1" parent="1" source="iqPXuH_9bO_A2cl8t-AS-48" target="iqPXuH_9bO_A2cl8t-AS-47">
          <mxGeometry relative="1" as="geometry" />
        </mxCell>
        <mxCell id="iqPXuH_9bO_A2cl8t-AS-52" style="edgeStyle=orthogonalEdgeStyle;rounded=0;orthogonalLoop=1;jettySize=auto;html=1;exitX=0.75;exitY=0;exitDx=0;exitDy=0;entryX=0.75;entryY=1;entryDx=0;entryDy=0;" edge="1" parent="1" source="iqPXuH_9bO_A2cl8t-AS-48" target="iqPXuH_9bO_A2cl8t-AS-32">
          <mxGeometry relative="1" as="geometry" />
        </mxCell>
        <mxCell id="iqPXuH_9bO_A2cl8t-AS-53" value="Back" style="edgeLabel;html=1;align=center;verticalAlign=middle;resizable=0;points=[];" connectable="0" vertex="1" parent="iqPXuH_9bO_A2cl8t-AS-52">
          <mxGeometry x="-0.0591" y="1" relative="1" as="geometry">
            <mxPoint as="offset" />
          </mxGeometry>
        </mxCell>
        <mxCell id="iqPXuH_9bO_A2cl8t-AS-48" value="&lt;div&gt;Budget&lt;/div&gt;&lt;div&gt;Details&lt;/div&gt;" style="rounded=1;whiteSpace=wrap;html=1;arcSize=40;fillColor=#e1d5e7;strokeColor=#9673a6;" vertex="1" parent="1">
          <mxGeometry x="240" y="535" width="120" height="40" as="geometry" />
        </mxCell>
      </root>
    </mxGraphModel>
  </diagram>
</mxfile>
